<svg xmlns="http://www.w3.org/2000/svg" width="128" height="128" fill="none" viewBox="0 0 128 128"><path stroke="#00FF29" stroke-linejoin="round" stroke-width="4" d="M62.1749 8.45649L11.0905 34.54C10.4212 34.8817 10 35.5697 10 36.3212V96.0968C10 96.8988 10.479 97.6232 11.2169 97.9372L62.2992 119.672C62.7917 119.882 63.3477 119.885 63.8427 119.682L116.76 97.9289C117.51 97.6206 118 96.89 118 96.0791V36.3403C118 35.5789 117.568 34.8835 116.885 34.5466L63.9692 8.44408C63.4027 8.16464 62.7375 8.16924 62.1749 8.45649Z"/><path fill="#000532" d="M60.6833 17.5535L17.4483 39.3606L63.069 59.1702L110.784 39.3606L65.0125 17.5117C63.6499 16.858 62.0313 16.8736 60.6833 17.5535Z"/><path fill="#000532" d="M19.9792 93.9935L63.069 112.774V59.1702L17.4483 39.3606V90.1134C17.4483 91.7491 18.4255 93.2472 19.9792 93.9935Z"/><path fill="#000532" d="M109.553 93.4159C110.299 93.1055 110.784 92.3772 110.784 91.5696V39.3606L63.069 59.1702V112.774L109.553 93.4159Z"/><path fill="#00FF29" d="M17.4483 39.3606L16.537 37.5803C15.8687 37.9224 15.4483 38.6099 15.4483 39.3606H17.4483ZM110.784 39.3606H112.784C112.784 38.5941 112.346 37.895 111.657 37.5608L110.784 39.3606ZM63.069 112.774L62.2703 114.608C62.7693 114.825 63.3354 114.83 63.8378 114.621L63.069 112.774ZM19.9792 93.9935L19.1132 95.7963C19.1353 95.8069 19.1576 95.8172 19.1801 95.827L19.9792 93.9935ZM60.6833 17.5535L61.584 19.3392L61.584 19.3392L60.6833 17.5535ZM65.0125 17.5117L64.1473 19.3149L64.1509 19.3166L65.0125 17.5117ZM18.6496 93.4265L19.4483 91.5929L18.6496 93.4265ZM63.7327 16.5634L62.8607 18.3633L63.7327 16.5634ZM61.9494 16.5829L61.0381 14.8026L61.9494 16.5829ZM109.553 93.4159L108.784 91.5696L109.553 93.4159ZM18.3489 41.1463L61.584 19.3392L59.7826 15.7678L16.5476 37.5749L18.3489 41.1463ZM64.1509 19.3166L109.923 41.1655L111.646 37.5557L65.874 15.7068L64.1509 19.3166ZM108.784 39.3606V91.5696H112.784V39.3606H108.784ZM108.784 91.5696L62.3001 110.928L63.8378 114.621L110.322 95.2622L108.784 91.5696ZM63.868 110.941L20.7783 92.1601L19.1801 95.827L62.2699 114.608L63.868 110.941ZM19.4483 90.1134V39.3606H15.4483V90.1134H19.4483ZM16.6517 41.1952L62.2724 61.0047L63.8655 57.3357L18.2448 37.5261L16.6517 41.1952ZM63.8358 61.0173L111.551 41.2078L110.018 37.5135L62.3021 57.323L63.8358 61.0173ZM61.069 59.1702V112.774H65.069V59.1702H61.069ZM20.8452 92.1908C19.9371 91.7545 19.4483 90.9288 19.4483 90.1134H15.4483C15.4483 92.5693 16.9138 94.7398 19.1132 95.7963L20.8452 92.1908ZM61.584 19.3392C62.3772 18.9391 63.3435 18.9293 64.1473 19.3149L65.8776 15.7085C63.9563 14.7867 61.6853 14.8081 59.7826 15.7678L61.584 19.3392ZM111.657 37.5608L64.6048 14.7635L62.8607 18.3633L109.912 41.1605L111.657 37.5608ZM61.0381 14.8026L16.537 37.5803L18.3595 41.141L62.8607 18.3633L61.0381 14.8026ZM15.4483 39.3606V91.5929H19.4483V39.3606H15.4483ZM17.8509 95.2601L62.2703 114.608L63.8676 110.941L19.4483 91.5929L17.8509 95.2601ZM15.4483 91.5929C15.4483 93.1844 16.3918 94.6246 17.8509 95.2601L19.4483 91.5929L19.4483 91.5929H15.4483ZM64.6048 14.7635C63.4756 14.2164 62.1551 14.2309 61.0381 14.8026L62.8607 18.3633L62.8607 18.3633L64.6048 14.7635ZM108.784 91.5696L108.784 91.5696L110.322 95.2622C111.813 94.6413 112.784 93.1847 112.784 91.5696H108.784Z"/></svg>